<svg width="639" height="100" viewBox="0 0 639 100" fill="none" xmlns="http://www.w3.org/2000/svg">
<path d="M98.6324 49.2704V49.319C98.6324 54.3296 97.8848 59.1645 96.4943 63.7209C95.3917 67.3429 93.8816 70.7873 92.0201 74C87.6954 81.4701 81.4682 87.6992 73.9981 92.0239C70.7854 93.8872 67.341 95.3954 63.7209 96.4981H63.719C59.1626 97.8885 54.3277 98.6361 49.3171 98.6361H49.2685C44.2542 98.6305 39.4137 97.8773 34.8554 96.4812C31.2185 95.3692 27.7628 93.8461 24.5389 91.9678C17.1119 87.645 10.9182 81.4383 6.61038 74C4.7265 70.748 3.2052 67.2625 2.0988 63.5938C0.732617 59.0766 0 54.2828 0 49.319V49.2704C0.00560677 44.3028 0.743831 39.5053 2.11562 34.9844C3.23137 31.3026 4.76575 27.804 6.66458 24.5427C10.9706 17.1474 17.1436 10.9724 24.5389 6.66831C27.7984 4.76949 31.297 3.23324 34.9787 2.11749C39.5015 0.7457 44.2991 0.00560677 49.2685 0V24.6829C35.702 24.709 24.7072 35.702 24.681 49.2704V49.319C24.681 62.9079 35.6852 73.9271 49.2685 73.9532H49.3171C62.921 73.9532 73.9514 62.9247 73.9514 49.319V49.2704H98.6324Z" fill="white"/>
<path d="M95.1443 38.3328C95.0527 38.2412 94.9612 38.1515 94.8677 38.0618C94.7986 37.9945 94.7275 37.9272 94.6584 37.8618C94.6023 37.8095 94.5463 37.7553 94.4902 37.703C94.4285 37.6469 94.3668 37.5908 94.3052 37.5348C94.2099 37.4469 94.1145 37.3628 94.0192 37.2787C93.8753 37.1498 93.7277 37.0246 93.5819 36.9012C93.5501 36.875 93.5183 36.8489 93.4866 36.8227C93.3333 36.6956 93.1801 36.5723 93.025 36.4489C92.8624 36.3181 92.6979 36.1948 92.5334 36.0677C92.382 35.9518 92.2269 35.8397 92.0699 35.7294C92.0587 35.72 92.0438 35.7107 92.0307 35.7014C91.8905 35.6004 91.7503 35.5033 91.6083 35.4061C91.4943 35.3294 91.3803 35.2528 91.2682 35.1781C91.1822 35.122 91.0962 35.0641 91.0103 35.0099C90.9486 34.9687 90.8869 34.9314 90.8234 34.8902C90.7486 34.8435 90.672 34.7968 90.5954 34.7501C90.4739 34.6734 90.3505 34.6006 90.2272 34.5277C90.216 34.5221 90.2066 34.5146 90.1954 34.509C90.0403 34.4174 89.8814 34.3258 89.7244 34.238C89.7132 34.2324 89.702 34.2268 89.6908 34.2193C89.517 34.1221 89.3413 34.0268 89.1656 33.9371C88.9881 33.8436 88.8068 33.7502 88.6255 33.6624C88.5358 33.6175 88.4442 33.5745 88.3526 33.5297C88.2611 33.4867 88.1714 33.4437 88.0798 33.4007C87.9938 33.3596 87.906 33.3204 87.82 33.2811C87.8163 33.2811 87.8107 33.2774 87.8069 33.2755C87.6219 33.1933 87.4387 33.1148 87.2537 33.0363C87.0687 32.9596 86.8837 32.883 86.6968 32.8101C86.5099 32.7372 86.323 32.6681 86.1342 32.6008C86.0408 32.5672 85.9473 32.5317 85.852 32.4999C85.5698 32.4008 85.2857 32.3074 85.0017 32.2196C84.9064 32.1897 84.811 32.1616 84.7157 32.1336C84.5307 32.0775 84.3438 32.0233 84.1569 31.9729C84.1532 31.9729 84.1494 31.971 84.1438 31.971C84.0467 31.9467 83.9513 31.9187 83.8542 31.8962C83.7588 31.8719 83.6635 31.8476 83.5663 31.8252C83.4748 31.8009 83.3832 31.7785 83.2897 31.7579C83.286 31.7579 83.2804 31.7579 83.2767 31.7561C83.0075 31.6944 82.7384 31.6365 82.4693 31.5823C82.4244 31.5748 82.3814 31.5673 82.3403 31.558C82.2544 31.5411 82.1665 31.5243 82.0805 31.5112C81.9927 31.4944 81.9067 31.4813 81.8189 31.4664C81.7254 31.4496 81.6301 31.4327 81.5367 31.4197C81.5329 31.4197 81.5292 31.4197 81.5292 31.4197C81.4208 31.4047 81.3143 31.386 81.204 31.3729C81.1162 31.3599 81.0283 31.3486 80.9405 31.3374C80.8059 31.3187 80.6714 31.3019 80.5368 31.287C80.449 31.2757 80.3593 31.2664 80.2696 31.2571C80.1817 31.2458 80.092 31.2384 80.0023 31.2309C79.8248 31.2141 79.6435 31.1973 79.4659 31.186C79.3687 31.1786 79.2697 31.173 79.1706 31.1655C78.8753 31.1487 78.5801 31.1356 78.2829 31.13C78.1838 31.1262 78.0848 31.1244 77.9876 31.1244C77.7914 31.1206 77.5933 31.1206 77.3952 31.1244C77.298 31.1244 77.1989 31.1244 77.0999 31.13C76.8046 31.1356 76.5074 31.1487 76.214 31.1655C76.1149 31.173 76.0178 31.1767 75.9187 31.186C75.7412 31.1973 75.5599 31.2141 75.3823 31.2309C75.2926 31.2384 75.2029 31.2458 75.1151 31.2571C75.0254 31.2645 74.9357 31.2757 74.8478 31.287C74.7114 31.3019 74.5787 31.3187 74.4441 31.3374C74.3563 31.3486 74.2685 31.3599 74.1806 31.3729C74.0703 31.3879 73.9638 31.4047 73.8554 31.4197C73.8554 31.4197 73.8517 31.4197 73.8479 31.4197C73.7545 31.4346 73.6592 31.4496 73.5657 31.4664C73.4779 31.4813 73.3919 31.4963 73.3041 31.5112C73.2162 31.5262 73.1303 31.5411 73.0443 31.558C73.0013 31.5654 72.9602 31.5729 72.9154 31.5823C72.8406 31.5972 72.764 31.6122 72.6873 31.629C72.5902 31.6495 72.4948 31.6682 72.3977 31.6907C72.3005 31.7112 72.2033 31.7318 72.1061 31.7542C72.1024 31.7542 72.0968 31.7542 72.093 31.7561C71.8089 31.8233 71.523 31.8944 71.2389 31.971C71.2333 31.971 71.2296 31.971 71.2258 31.9729C71.039 32.0252 70.8521 32.0775 70.667 32.1336C70.5699 32.1616 70.4745 32.1897 70.3811 32.2196C70.0951 32.3074 69.8111 32.4008 69.5307 32.4999C69.4354 32.5317 69.3401 32.5653 69.2485 32.6008C69.0616 32.67 68.8729 32.7391 68.6878 32.8101C68.501 32.883 68.3159 32.9596 68.1309 33.0363C67.944 33.1148 67.7627 33.1933 67.5777 33.2755C67.574 33.2755 67.5684 33.2792 67.5646 33.2811C67.4768 33.3204 67.3908 33.3596 67.3048 33.4007C67.2133 33.4437 67.1217 33.4848 67.032 33.5297C66.9404 33.5727 66.8488 33.6175 66.7591 33.6624C66.5778 33.7502 66.3984 33.8436 66.2209 33.9371C66.0452 34.0287 65.8695 34.1221 65.6957 34.2193C65.6845 34.2268 65.6714 34.2324 65.6621 34.238C65.5051 34.3258 65.3462 34.4155 65.1911 34.509C65.1799 34.5146 65.1705 34.5221 65.1593 34.5277C65.036 34.6006 64.9126 34.6734 64.7911 34.7501C64.7164 34.7968 64.6398 34.8435 64.5631 34.8902C64.4996 34.9295 64.4379 34.9687 64.3762 35.0099C64.2903 35.0641 64.2043 35.1201 64.1183 35.1781C64.0043 35.2528 63.8903 35.3294 63.7782 35.4061C63.6362 35.5033 63.496 35.6004 63.3558 35.7014C63.3446 35.7107 63.3296 35.72 63.3166 35.7294C63.1614 35.8397 63.0082 35.9518 62.8549 36.0677C62.6905 36.1929 62.526 36.3181 62.3634 36.4489C62.2083 36.5723 62.055 36.6956 61.9018 36.8227C61.87 36.8489 61.8383 36.875 61.8065 36.9012C61.6588 37.0246 61.5131 37.1498 61.3691 37.2787C61.2738 37.3628 61.1785 37.4469 61.0832 37.5348C61.0215 37.5908 60.9599 37.6469 60.8982 37.7048C60.8421 37.7572 60.7842 37.8114 60.7281 37.8637C60.659 37.9291 60.5879 37.9964 60.5188 38.0637C60.4253 38.1534 60.3338 38.2431 60.2422 38.3347C69.8335 28.7079 69.8559 13.1509 60.3095 3.49609C60.4384 3.62131 60.5674 3.7484 60.6982 3.87175C60.8309 3.99696 60.9673 4.12405 61.1019 4.2474C61.1897 4.32776 61.2794 4.40626 61.3673 4.48475C61.4458 4.5539 61.5243 4.62305 61.6046 4.69033C61.7971 4.85667 61.9934 5.02113 62.1915 5.17999C62.2681 5.24354 62.3447 5.30334 62.4232 5.36502C62.5167 5.43977 62.612 5.51453 62.7092 5.58742C62.7783 5.63975 62.8475 5.69021 62.9147 5.74254C62.9989 5.80421 63.0792 5.86589 63.1633 5.92569C63.2156 5.96494 63.2698 6.00419 63.324 6.04157C63.4081 6.10324 63.4922 6.16118 63.5763 6.21911C64.2772 6.70877 64.9986 7.15731 65.735 7.56474C65.8228 7.61333 65.9125 7.66192 66.0022 7.71051C66.4507 7.9516 66.9068 8.17774 67.3684 8.38893C67.4525 8.42818 67.5385 8.46743 67.6244 8.5048C67.8992 8.62815 68.1776 8.7459 68.4598 8.85803C68.6206 8.92344 68.785 8.98699 68.9495 9.05053C69.1551 9.12716 69.3625 9.20378 69.57 9.27293C69.6616 9.30657 69.7569 9.33834 69.8522 9.37012C69.9475 9.40189 70.041 9.43179 70.1344 9.46356C70.2278 9.49346 70.3232 9.52337 70.4185 9.5514C70.6072 9.61121 70.7979 9.66727 70.9885 9.7196C71.3698 9.828 71.7529 9.92519 72.1379 10.0112C72.3192 10.0541 72.5005 10.0934 72.6817 10.1308C72.7976 10.1532 72.9116 10.1756 73.0275 10.198C73.205 10.2317 73.3826 10.2653 73.5601 10.2952C73.7638 10.3289 73.9694 10.3625 74.1731 10.3905C74.3619 10.4186 74.5507 10.4429 74.7376 10.4653C74.8422 10.4765 74.9469 10.4896 75.0515 10.4989C75.2459 10.5214 75.4421 10.5401 75.6384 10.555C75.9318 10.5812 76.2252 10.5999 76.5205 10.6129C76.9111 10.6316 77.3036 10.641 77.6979 10.641C78.0923 10.641 78.4847 10.6316 78.8753 10.6129C79.1744 10.5999 79.4734 10.5793 79.7706 10.555C79.9631 10.5382 80.1537 10.5214 80.3443 10.4989C80.4471 10.4877 80.5518 10.4765 80.6564 10.4653C80.8433 10.441 81.0339 10.4186 81.2227 10.3905C81.5143 10.3494 81.8058 10.3027 82.0955 10.2485C82.1927 10.2298 82.2899 10.213 82.387 10.1943C82.5795 10.1569 82.772 10.1177 82.9664 10.0747C83.2561 10.013 83.5439 9.94387 83.8299 9.87099C83.927 9.84669 84.0224 9.82239 84.1158 9.79623C84.4017 9.72147 84.6877 9.63924 84.9718 9.54953C85.0671 9.51963 85.1624 9.4916 85.2558 9.46169C85.8427 9.2748 86.422 9.06361 86.9977 8.83C87.0893 8.79262 87.1846 8.75524 87.2761 8.71412C87.4387 8.64684 87.6032 8.57582 87.7658 8.50294C87.8219 8.47864 87.8817 8.45061 87.9396 8.42444C88.6106 8.11981 89.2703 7.7834 89.9169 7.41522C89.9917 7.37224 90.0664 7.32925 90.1393 7.28627C90.2776 7.20964 90.4122 7.12741 90.5468 7.04518C90.6253 6.99845 90.7038 6.94799 90.7822 6.8994C90.8701 6.84707 90.9561 6.79287 91.042 6.73494C91.1299 6.67887 91.2158 6.6228 91.2999 6.56673C91.3859 6.51066 91.4719 6.45273 91.556 6.39479C91.642 6.33872 91.726 6.27892 91.8102 6.21911C91.8943 6.16118 91.9802 6.0995 92.0625 6.04157C92.2008 5.94438 92.3372 5.84346 92.4736 5.74067C92.5465 5.68647 92.6194 5.6304 92.6923 5.5762C92.9558 5.37436 93.2175 5.16691 93.4772 4.95198C93.5408 4.89965 93.6006 4.84546 93.6641 4.79313C93.7034 4.75948 93.7426 4.72771 93.7819 4.6922C93.8622 4.62492 93.9426 4.55577 94.0192 4.48662C94.1089 4.40813 94.1986 4.32776 94.2883 4.24553C94.421 4.12592 94.5537 4.0007 94.6864 3.87735C94.8191 3.754 94.9499 3.62505 95.0789 3.49796C85.5343 13.1509 85.5549 28.7116 95.1462 38.3365L95.1443 38.3328Z" fill="white"/>
<path d="M104.906 3.17578H142.001C166.003 3.17578 178.276 19.4036 178.276 39.3151C178.276 59.2266 166.003 75.1816 142.001 75.1816H129.455V98.6385H104.908V3.17578H104.906ZM140.636 51.4519C148.136 51.4519 153.455 46.4058 153.455 39.4516C153.455 32.4973 147.727 26.9055 140.636 26.9055H129.455V51.4519H140.636Z" fill="white"/>
<path d="M180.596 93.7238V62.4941C184.687 66.9944 193.824 74.7673 214.688 74.7673C226.416 74.7673 229.417 72.3134 229.417 69.039C229.417 55.8108 180.732 66.5851 180.732 30.3094C180.732 14.6272 189.733 1.67188 219.052 1.67188C235.007 1.67188 244.417 5.49008 249.054 9.30829L248.099 38.2186C244.554 32.354 231.871 26.0819 219.325 26.0819C210.461 26.0819 209.233 29.2179 209.233 31.128C209.233 42.5826 253.282 32.4923 253.282 68.4952C253.282 87.7245 240.599 99.9977 211.278 99.9977C198.459 99.9977 188.503 97.6803 180.594 93.7238H180.596Z" fill="white"/>
<path d="M279.328 27.4493H256.008V3.17578H327.059V27.4493H303.875V98.6366H279.328V27.4493Z" fill="white"/>
<path d="M332.508 3.17578H357.054V98.6366H332.508V3.17578Z" fill="white"/>
<path d="M364.961 3.17578H396.736L420.193 57.8623L442.968 3.17578H474.607V98.6366H450.06V44.2229L433.969 80.908H406.421L389.511 43.6772V98.6366H364.965V3.17578H364.961Z" fill="white"/>
<path d="M485.246 69.7262V3.17578H509.792V66.1809C509.792 74.363 514.702 77.9084 521.247 77.9084C527.792 77.9084 533.111 74.363 533.111 66.1809V3.17578H557.657V69.7262C557.657 93.0466 535.974 100.001 521.245 100.001C506.516 100.001 485.242 93.0466 485.242 69.7262H485.246Z" fill="white"/>
<path d="M566.111 93.7238V62.4941C570.202 66.9944 579.339 74.7673 600.204 74.7673C611.932 74.7673 614.933 72.3134 614.933 69.039C614.933 55.8108 566.248 66.5851 566.248 30.3094C566.248 14.6272 575.248 1.67188 604.568 1.67188C620.523 1.67188 629.933 5.49008 634.57 9.30829L633.615 38.2186C630.069 32.354 617.387 26.0819 604.841 26.0819C595.977 26.0819 594.749 29.2179 594.749 31.128C594.749 42.5826 638.797 32.4923 638.797 68.4952C638.797 87.7245 626.115 99.9977 596.793 99.9977C583.974 99.9977 574.019 97.6803 566.109 93.7238H566.111Z" fill="white"/>
</svg>
