<svg width="639" height="100" viewBox="0 0 639 100" fill="none" xmlns="http://www.w3.org/2000/svg">
<path d="M98.6324 49.2704V49.319C98.6324 54.3296 97.8848 59.1645 96.4943 63.7209C95.3917 67.3429 93.8816 70.7873 92.0201 74C87.6954 81.4701 81.4682 87.6992 73.9981 92.0239C70.7854 93.8872 67.341 95.3954 63.7209 96.4981H63.719C59.1626 97.8885 54.3277 98.6361 49.3171 98.6361H49.2685C44.2542 98.6305 39.4137 97.8773 34.8554 96.4812C31.2185 95.3692 27.7628 93.8461 24.5389 91.9678C17.1119 87.645 10.9182 81.4383 6.61038 74C4.7265 70.7481 3.2052 67.2625 2.0988 63.5938C0.732617 59.0766 0 54.2828 0 49.319V49.2704C0.00560677 44.3028 0.743831 39.5053 2.11562 34.9844C3.23137 31.3026 4.76575 27.804 6.66458 24.5427C10.9706 17.1474 17.1436 10.9724 24.5389 6.66831C27.7984 4.76949 31.297 3.23324 34.9787 2.11749C39.5015 0.7457 44.2991 0.00560677 49.2685 0V24.6829C35.702 24.709 24.7072 35.702 24.681 49.2704V49.319C24.681 62.9079 35.6852 73.9271 49.2685 73.9532H49.3171C62.921 73.9532 73.9514 62.9247 73.9514 49.319V49.2704H98.6324Z" fill="url(#paint0_linear_195_604)"/>
<path d="M95.1445 38.3325C95.0529 38.2409 94.9614 38.1512 94.8679 38.0615C94.7988 37.9942 94.7278 37.9269 94.6586 37.8615C94.6025 37.8092 94.5465 37.755 94.4904 37.7026C94.4287 37.6466 94.3671 37.5905 94.3054 37.5344C94.2101 37.4466 94.1147 37.3625 94.0194 37.2784C93.8755 37.1494 93.7279 37.0242 93.5821 36.9009C93.5503 36.8747 93.5186 36.8485 93.4868 36.8224C93.3335 36.6953 93.1803 36.5719 93.0252 36.4486C92.8626 36.3178 92.6981 36.1944 92.5336 36.0673C92.3823 35.9515 92.2271 35.8393 92.0702 35.729C92.0589 35.7197 92.044 35.7104 92.0309 35.701C91.8907 35.6001 91.7506 35.5029 91.6085 35.4057C91.4945 35.3291 91.3805 35.2525 91.2684 35.1777C91.1824 35.1216 91.0964 35.0637 91.0105 35.0095C90.9488 34.9684 90.8871 34.931 90.8236 34.8899C90.7488 34.8432 90.6722 34.7965 90.5956 34.7497C90.4741 34.6731 90.3507 34.6002 90.2274 34.5273C90.2162 34.5217 90.2068 34.5142 90.1956 34.5086C90.0405 34.4171 89.8816 34.3255 89.7246 34.2376C89.7134 34.232 89.7022 34.2264 89.691 34.219C89.5172 34.1218 89.3415 34.0265 89.1658 33.9368C88.9883 33.8433 88.807 33.7499 88.6257 33.662C88.536 33.6172 88.4444 33.5742 88.3529 33.5293C88.2613 33.4863 88.1716 33.4434 88.08 33.4004C87.994 33.3593 87.9062 33.32 87.8202 33.2808C87.8165 33.2808 87.8109 33.277 87.8071 33.2752C87.6221 33.1929 87.439 33.1144 87.2539 33.0359C87.0689 32.9593 86.8839 32.8827 86.697 32.8098C86.5101 32.7369 86.3232 32.6678 86.1345 32.6005C86.041 32.5668 85.9476 32.5313 85.8522 32.4995C85.57 32.4005 85.286 32.3071 85.0019 32.2192C84.9066 32.1893 84.8113 32.1613 84.7159 32.1332C84.5309 32.0772 84.344 32.023 84.1571 31.9725C84.1534 31.9725 84.1497 31.9706 84.1441 31.9706C84.0469 31.9463 83.9516 31.9183 83.8544 31.8959C83.7591 31.8716 83.6637 31.8473 83.5666 31.8249C83.475 31.8006 83.3834 31.7781 83.29 31.7576C83.2862 31.7576 83.2806 31.7576 83.2769 31.7557C83.0077 31.694 82.7386 31.6361 82.4695 31.5819C82.4246 31.5744 82.3817 31.567 82.3405 31.5576C82.2546 31.5408 82.1667 31.524 82.0808 31.5109C81.9929 31.4941 81.9069 31.481 81.8191 31.466C81.7257 31.4492 81.6303 31.4324 81.5369 31.4193C81.5332 31.4193 81.5294 31.4193 81.5294 31.4193C81.421 31.4044 81.3145 31.3857 81.2042 31.3726C81.1164 31.3595 81.0285 31.3483 80.9407 31.3371C80.8062 31.3184 80.6716 31.3016 80.537 31.2866C80.4492 31.2754 80.3595 31.2661 80.2698 31.2567C80.1819 31.2455 80.0922 31.238 80.0025 31.2306C79.825 31.2137 79.6437 31.1969 79.4661 31.1857C79.369 31.1782 79.2699 31.1726 79.1708 31.1651C78.8756 31.1483 78.5803 31.1352 78.2831 31.1296C78.1841 31.1259 78.085 31.124 77.9878 31.124C77.7916 31.1203 77.5935 31.1203 77.3954 31.124C77.2982 31.124 77.1991 31.124 77.1001 31.1296C76.8048 31.1352 76.5076 31.1483 76.2142 31.1651C76.1152 31.1726 76.018 31.1764 75.9189 31.1857C75.7414 31.1969 75.5601 31.2137 75.3825 31.2306C75.2928 31.238 75.2031 31.2455 75.1153 31.2567C75.0256 31.2642 74.9359 31.2754 74.848 31.2866C74.7116 31.3016 74.5789 31.3184 74.4443 31.3371C74.3565 31.3483 74.2687 31.3595 74.1808 31.3726C74.0706 31.3875 73.964 31.4044 73.8556 31.4193C73.8556 31.4193 73.8519 31.4193 73.8482 31.4193C73.7547 31.4343 73.6594 31.4492 73.5659 31.466C73.4781 31.481 73.3921 31.4959 73.3043 31.5109C73.2165 31.5258 73.1305 31.5408 73.0445 31.5576C73.0015 31.5651 72.9604 31.5726 72.9156 31.5819C72.8408 31.5969 72.7642 31.6118 72.6876 31.6286C72.5904 31.6492 72.4951 31.6679 72.3979 31.6903C72.3007 31.7109 72.2035 31.7314 72.1063 31.7538C72.1026 31.7538 72.097 31.7539 72.0932 31.7557C71.8092 31.823 71.5232 31.894 71.2391 31.9706C71.2335 31.9706 71.2298 31.9706 71.2261 31.9725C71.0392 32.0248 70.8523 32.0772 70.6673 32.1332C70.5701 32.1613 70.4747 32.1893 70.3813 32.2192C70.0954 32.3071 69.8113 32.4005 69.5309 32.4995C69.4356 32.5313 69.3403 32.565 69.2487 32.6005C69.0619 32.6696 68.8731 32.7388 68.6881 32.8098C68.5012 32.8827 68.3161 32.9593 68.1311 33.0359C67.9442 33.1144 67.7629 33.1929 67.5779 33.2752C67.5742 33.2752 67.5686 33.2789 67.5648 33.2808C67.477 33.32 67.391 33.3593 67.3051 33.4004C67.2135 33.4434 67.1219 33.4845 67.0322 33.5293C66.9406 33.5723 66.849 33.6172 66.7593 33.662C66.5781 33.7499 66.3986 33.8433 66.2211 33.9368C66.0454 34.0283 65.8697 34.1218 65.6959 34.219C65.6847 34.2264 65.6716 34.232 65.6623 34.2376C65.5053 34.3255 65.3464 34.4152 65.1913 34.5086C65.1801 34.5142 65.1708 34.5217 65.1595 34.5273C65.0362 34.6002 64.9128 34.6731 64.7914 34.7497C64.7166 34.7965 64.64 34.8432 64.5634 34.8899C64.4998 34.9291 64.4381 34.9684 64.3765 35.0095C64.2905 35.0637 64.2045 35.1198 64.1186 35.1777C64.0045 35.2525 63.8905 35.3291 63.7784 35.4057C63.6364 35.5029 63.4962 35.6001 63.356 35.701C63.3448 35.7104 63.3299 35.7197 63.3168 35.729C63.1617 35.8393 63.0084 35.9515 62.8552 36.0673C62.6907 36.1925 62.5262 36.3178 62.3636 36.4486C62.2085 36.5719 62.0553 36.6953 61.902 36.8224C61.8702 36.8485 61.8385 36.8747 61.8067 36.9009C61.659 37.0242 61.5133 37.1494 61.3694 37.2784C61.274 37.3625 61.1787 37.4466 61.0834 37.5344C61.0217 37.5905 60.9601 37.6466 60.8984 37.7045C60.8423 37.7568 60.7844 37.811 60.7283 37.8634C60.6592 37.9288 60.5882 37.9961 60.519 38.0633C60.4256 38.153 60.334 38.2427 60.2424 38.3343C69.8337 28.7075 69.8561 13.1506 60.3097 3.49575C60.4386 3.62097 60.5676 3.74805 60.6984 3.8714C60.8311 3.99662 60.9675 4.12371 61.1021 4.24706C61.1899 4.32742 61.2797 4.40591 61.3675 4.48441C61.446 4.55356 61.5245 4.62271 61.6048 4.68999C61.7973 4.85632 61.9936 5.02079 62.1917 5.17965C62.2683 5.24319 62.3449 5.303 62.4234 5.36467C62.5169 5.43943 62.6122 5.51418 62.7094 5.58707C62.7785 5.6394 62.8477 5.68986 62.915 5.74219C62.9991 5.80387 63.0794 5.86554 63.1635 5.92535C63.2159 5.9646 63.2701 6.00384 63.3243 6.04122C63.4084 6.1029 63.4925 6.16083 63.5766 6.21877C64.2774 6.70843 64.9988 7.15697 65.7352 7.56439C65.823 7.61298 65.9127 7.66158 66.0024 7.71017C66.451 7.95126 66.907 8.1774 67.3686 8.38859C67.4527 8.42783 67.5387 8.46708 67.6246 8.50446C67.8994 8.62781 68.1778 8.74555 68.4601 8.85769C68.6208 8.9231 68.7852 8.98664 68.9497 9.05019C69.1553 9.12681 69.3627 9.20344 69.5702 9.27259C69.6618 9.30623 69.7571 9.338 69.8524 9.36977C69.9477 9.40154 70.0412 9.43145 70.1346 9.46322C70.2281 9.49312 70.3234 9.52302 70.4187 9.55106C70.6074 9.61086 70.7981 9.66693 70.9887 9.71926C71.37 9.82766 71.7531 9.92484 72.1381 10.0108C72.3194 10.0538 72.5007 10.093 72.682 10.1304C72.7978 10.1528 72.9118 10.1753 73.0277 10.1977C73.2053 10.2313 73.3828 10.265 73.5603 10.2949C73.7641 10.3285 73.9696 10.3622 74.1733 10.3902C74.3621 10.4182 74.5509 10.4425 74.7378 10.465C74.8424 10.4762 74.9471 10.4893 75.0517 10.4986C75.2461 10.521 75.4423 10.5397 75.6386 10.5547C75.932 10.5808 76.2254 10.5995 76.5207 10.6126C76.9113 10.6313 77.3038 10.6406 77.6981 10.6406C78.0925 10.6406 78.485 10.6313 78.8756 10.6126C79.1746 10.5995 79.4736 10.579 79.7708 10.5547C79.9633 10.5378 80.1539 10.521 80.3445 10.4986C80.4473 10.4874 80.552 10.4762 80.6566 10.465C80.8435 10.4407 81.0342 10.4182 81.2229 10.3902C81.5145 10.3491 81.806 10.3024 82.0957 10.2482C82.1929 10.2295 82.2901 10.2127 82.3873 10.194C82.5798 10.1566 82.7723 10.1173 82.9666 10.0744C83.2563 10.0127 83.5441 9.94353 83.8301 9.87064C83.9273 9.84635 84.0226 9.82205 84.116 9.79589C84.402 9.72113 84.6879 9.6389 84.972 9.54919C85.0673 9.51929 85.1626 9.49125 85.2561 9.46135C85.8429 9.27446 86.4223 9.06327 86.9979 8.82965C87.0895 8.79227 87.1848 8.7549 87.2764 8.71378C87.439 8.6465 87.6034 8.57548 87.766 8.50259C87.8221 8.4783 87.8819 8.45026 87.9398 8.4241C88.6108 8.11946 89.2705 7.78306 89.9171 7.41488C89.9919 7.37189 90.0667 7.32891 90.1395 7.28592C90.2778 7.2093 90.4124 7.12706 90.547 7.04483C90.6255 6.99811 90.704 6.94765 90.7825 6.89906C90.8703 6.84673 90.9563 6.79253 91.0422 6.73459C91.1301 6.67852 91.2161 6.62246 91.3002 6.56639C91.3861 6.51032 91.4721 6.45238 91.5562 6.39445C91.6422 6.33838 91.7263 6.27857 91.8104 6.21877C91.8945 6.16083 91.9804 6.09916 92.0627 6.04122C92.201 5.94404 92.3374 5.84311 92.4738 5.74032C92.5467 5.68613 92.6196 5.63006 92.6925 5.57586C92.956 5.37402 93.2177 5.16657 93.4774 4.95164C93.541 4.89931 93.6008 4.84511 93.6643 4.79278C93.7036 4.75914 93.7428 4.72737 93.7821 4.69186C93.8624 4.62458 93.9428 4.55543 94.0194 4.48628C94.1091 4.40778 94.1989 4.32742 94.2886 4.24519C94.4212 4.12558 94.5539 4.00036 94.6866 3.87701C94.8193 3.75366 94.9502 3.6247 95.0791 3.49762C85.5345 13.1506 85.5551 28.7112 95.1464 38.3362L95.1445 38.3325Z" fill="url(#paint1_linear_195_604)"/>
<path d="M104.906 3.17488H142C166.003 3.17488 178.276 19.4027 178.276 39.3142C178.276 59.2257 166.003 75.1807 142 75.1807H129.454V98.6376H104.908V3.17488H104.906ZM140.636 51.451C148.136 51.451 153.455 46.4049 153.455 39.4507C153.455 32.4964 147.727 26.9046 140.636 26.9046H129.454V51.451H140.636Z" fill="url(#paint2_linear_195_604)"/>
<path d="M180.594 93.7238V62.4941C184.685 66.9944 193.823 74.7673 214.687 74.7673C226.415 74.7673 229.416 72.3134 229.416 69.039C229.416 55.8108 180.731 66.5851 180.731 30.3094C180.731 14.6272 189.731 1.67188 219.051 1.67188C235.006 1.67188 244.416 5.49009 249.053 9.3083L248.098 38.2186C244.553 32.354 231.87 26.0819 219.324 26.0819C210.46 26.0819 209.232 29.2179 209.232 31.128C209.232 42.5826 253.28 32.4923 253.28 68.4952C253.28 87.7245 240.598 99.9977 211.276 99.9977C198.457 99.9977 188.502 97.6803 180.592 93.7238H180.594Z" fill="url(#paint3_linear_195_604)"/>
<path d="M279.325 27.4484H256.004V3.17488H327.055V27.4484H303.871V98.6357H279.325V27.4484Z" fill="url(#paint4_linear_195_604)"/>
<path d="M332.51 3.17488H357.056V98.6357H332.51V3.17488Z" fill="url(#paint5_linear_195_604)"/>
<path d="M364.964 3.17488H396.739L420.196 57.8614L442.971 3.17488H474.61V98.6357H450.063V44.222L433.972 80.9071H406.424L389.514 43.6763V98.6357H364.967V3.17488H364.964Z" fill="url(#paint6_linear_195_604)"/>
<path d="M485.246 69.7253V3.17488H509.792V66.18C509.792 74.3621 514.702 77.9075 521.247 77.9075C527.792 77.9075 533.111 74.3621 533.111 66.18V3.17488H557.657V69.7253C557.657 93.0457 535.974 100 521.245 100C506.516 100 485.242 93.0457 485.242 69.7253H485.246Z" fill="url(#paint7_linear_195_604)"/>
<path d="M566.115 93.7238V62.4941C570.206 66.9944 579.343 74.7673 600.207 74.7673C611.935 74.7673 614.936 72.3134 614.936 69.039C614.936 55.8108 566.251 66.5851 566.251 30.3094C566.251 14.6272 575.252 1.67188 604.571 1.67188C620.526 1.67188 629.936 5.49009 634.573 9.3083L633.618 38.2186C630.073 32.354 617.39 26.0819 604.844 26.0819C595.98 26.0819 594.752 29.2179 594.752 31.128C594.752 42.5826 638.801 32.4923 638.801 68.4952C638.801 87.7245 626.118 99.9977 596.797 99.9977C583.978 99.9977 574.022 97.6803 566.113 93.7238H566.115Z" fill="url(#paint8_linear_195_604)"/>
<defs>
<linearGradient id="paint0_linear_195_604" x1="-190.517" y1="83.0898" x2="887.893" y2="-92.9226" gradientUnits="userSpaceOnUse">
<stop offset="0.153846" stop-color="#21327A"/>
<stop offset="0.423077" stop-color="#9AAEF6"/>
<stop offset="0.721154" stop-color="#DA794F"/>
</linearGradient>
<linearGradient id="paint1_linear_195_604" x1="-190.517" y1="83.0898" x2="887.893" y2="-92.9226" gradientUnits="userSpaceOnUse">
<stop offset="0.153846" stop-color="#21327A"/>
<stop offset="0.423077" stop-color="#9AAEF6"/>
<stop offset="0.721154" stop-color="#DA794F"/>
</linearGradient>
<linearGradient id="paint2_linear_195_604" x1="-190.517" y1="83.0898" x2="887.893" y2="-92.9226" gradientUnits="userSpaceOnUse">
<stop offset="0.153846" stop-color="#21327A"/>
<stop offset="0.423077" stop-color="#9AAEF6"/>
<stop offset="0.721154" stop-color="#DA794F"/>
</linearGradient>
<linearGradient id="paint3_linear_195_604" x1="-190.517" y1="83.0898" x2="887.893" y2="-92.9226" gradientUnits="userSpaceOnUse">
<stop offset="0.153846" stop-color="#21327A"/>
<stop offset="0.423077" stop-color="#9AAEF6"/>
<stop offset="0.721154" stop-color="#DA794F"/>
</linearGradient>
<linearGradient id="paint4_linear_195_604" x1="-190.517" y1="83.0898" x2="887.893" y2="-92.9226" gradientUnits="userSpaceOnUse">
<stop offset="0.153846" stop-color="#21327A"/>
<stop offset="0.423077" stop-color="#9AAEF6"/>
<stop offset="0.721154" stop-color="#DA794F"/>
</linearGradient>
<linearGradient id="paint5_linear_195_604" x1="-190.517" y1="83.0898" x2="887.893" y2="-92.9226" gradientUnits="userSpaceOnUse">
<stop offset="0.153846" stop-color="#21327A"/>
<stop offset="0.423077" stop-color="#9AAEF6"/>
<stop offset="0.721154" stop-color="#DA794F"/>
</linearGradient>
<linearGradient id="paint6_linear_195_604" x1="-190.517" y1="83.0898" x2="887.893" y2="-92.9226" gradientUnits="userSpaceOnUse">
<stop offset="0.153846" stop-color="#21327A"/>
<stop offset="0.423077" stop-color="#9AAEF6"/>
<stop offset="0.721154" stop-color="#DA794F"/>
</linearGradient>
<linearGradient id="paint7_linear_195_604" x1="-190.517" y1="83.0898" x2="887.893" y2="-92.9226" gradientUnits="userSpaceOnUse">
<stop offset="0.153846" stop-color="#21327A"/>
<stop offset="0.423077" stop-color="#9AAEF6"/>
<stop offset="0.721154" stop-color="#DA794F"/>
</linearGradient>
<linearGradient id="paint8_linear_195_604" x1="-190.517" y1="83.0898" x2="887.893" y2="-92.9226" gradientUnits="userSpaceOnUse">
<stop offset="0.153846" stop-color="#21327A"/>
<stop offset="0.423077" stop-color="#9AAEF6"/>
<stop offset="0.721154" stop-color="#DA794F"/>
</linearGradient>
</defs>
</svg>
